<mxfile host="app.diagrams.net" modified="2021-12-17T07:58:20.751Z" agent="5.0 (Macintosh; Intel Mac OS X 10_15_7) AppleWebKit/537.36 (KHTML, like Gecko) Chrome/96.0.4664.110 Safari/537.36" etag="VwDnk1CPUsE8cr5dfO48" version="15.9.4" type="github">
  <diagram id="bSTJGgKM-z_hkHdTHr45" name="Page-1">
    <mxGraphModel dx="2703" dy="1754" grid="1" gridSize="10" guides="1" tooltips="1" connect="1" arrows="1" fold="1" page="1" pageScale="1" pageWidth="827" pageHeight="1169" math="0" shadow="0">
      <root>
        <mxCell id="0" />
        <mxCell id="1" parent="0" />
        <mxCell id="uAHaU_QoXrdmUZP_G0ET-5" style="edgeStyle=orthogonalEdgeStyle;rounded=0;orthogonalLoop=1;jettySize=auto;html=1;exitX=1;exitY=0.5;exitDx=0;exitDy=0;" edge="1" parent="1" source="uAHaU_QoXrdmUZP_G0ET-1" target="uAHaU_QoXrdmUZP_G0ET-2">
          <mxGeometry relative="1" as="geometry" />
        </mxCell>
        <mxCell id="uAHaU_QoXrdmUZP_G0ET-1" value="" style="ellipse;whiteSpace=wrap;html=1;fillColor=#000000;" vertex="1" parent="1">
          <mxGeometry x="190" y="190" width="20" height="20" as="geometry" />
        </mxCell>
        <mxCell id="uAHaU_QoXrdmUZP_G0ET-6" style="edgeStyle=orthogonalEdgeStyle;rounded=0;orthogonalLoop=1;jettySize=auto;html=1;exitX=1;exitY=0.5;exitDx=0;exitDy=0;" edge="1" parent="1" source="uAHaU_QoXrdmUZP_G0ET-2" target="uAHaU_QoXrdmUZP_G0ET-4">
          <mxGeometry relative="1" as="geometry" />
        </mxCell>
        <mxCell id="uAHaU_QoXrdmUZP_G0ET-2" value="Zentrale erfasst Daten von Auftraggeber" style="rounded=1;whiteSpace=wrap;html=1;fillColor=#E6E6E6;gradientColor=none;strokeWidth=1;perimeterSpacing=0;glass=0;" vertex="1" parent="1">
          <mxGeometry x="280" y="177.5" width="120" height="45" as="geometry" />
        </mxCell>
        <mxCell id="uAHaU_QoXrdmUZP_G0ET-3" style="edgeStyle=orthogonalEdgeStyle;rounded=0;orthogonalLoop=1;jettySize=auto;html=1;exitX=0.5;exitY=0;exitDx=0;exitDy=0;entryX=0.583;entryY=0;entryDx=0;entryDy=0;entryPerimeter=0;" edge="1" parent="1" source="uAHaU_QoXrdmUZP_G0ET-2" target="uAHaU_QoXrdmUZP_G0ET-2">
          <mxGeometry relative="1" as="geometry" />
        </mxCell>
        <mxCell id="uAHaU_QoXrdmUZP_G0ET-8" style="edgeStyle=orthogonalEdgeStyle;rounded=0;orthogonalLoop=1;jettySize=auto;html=1;exitX=1;exitY=0.5;exitDx=0;exitDy=0;" edge="1" parent="1" source="uAHaU_QoXrdmUZP_G0ET-4" target="uAHaU_QoXrdmUZP_G0ET-7">
          <mxGeometry relative="1" as="geometry" />
        </mxCell>
        <mxCell id="uAHaU_QoXrdmUZP_G0ET-4" value="Auftrag an Kurier weiterleiten" style="rounded=1;whiteSpace=wrap;html=1;fillColor=#E6E6E6;gradientColor=none;strokeWidth=1;perimeterSpacing=0;glass=0;" vertex="1" parent="1">
          <mxGeometry x="470" y="185" width="120" height="30" as="geometry" />
        </mxCell>
        <mxCell id="uAHaU_QoXrdmUZP_G0ET-10" style="edgeStyle=orthogonalEdgeStyle;rounded=0;orthogonalLoop=1;jettySize=auto;html=1;exitX=1;exitY=0.5;exitDx=0;exitDy=0;entryX=0;entryY=0.5;entryDx=0;entryDy=0;" edge="1" parent="1" source="uAHaU_QoXrdmUZP_G0ET-7" target="uAHaU_QoXrdmUZP_G0ET-9">
          <mxGeometry relative="1" as="geometry" />
        </mxCell>
        <mxCell id="uAHaU_QoXrdmUZP_G0ET-7" value="Kurier sucht Kunden auf" style="rounded=1;whiteSpace=wrap;html=1;fillColor=#E6E6E6;gradientColor=none;strokeWidth=1;perimeterSpacing=0;glass=0;" vertex="1" parent="1">
          <mxGeometry x="650" y="185" width="120" height="30" as="geometry" />
        </mxCell>
        <mxCell id="uAHaU_QoXrdmUZP_G0ET-14" style="edgeStyle=orthogonalEdgeStyle;rounded=0;orthogonalLoop=1;jettySize=auto;html=1;exitX=1;exitY=0.5;exitDx=0;exitDy=0;entryX=0;entryY=0.5;entryDx=0;entryDy=0;" edge="1" parent="1" source="uAHaU_QoXrdmUZP_G0ET-9" target="uAHaU_QoXrdmUZP_G0ET-11">
          <mxGeometry relative="1" as="geometry" />
        </mxCell>
        <mxCell id="uAHaU_QoXrdmUZP_G0ET-9" value="Kurier erfasst Daten von Kunden" style="rounded=1;whiteSpace=wrap;html=1;fillColor=#E6E6E6;gradientColor=none;strokeWidth=1;perimeterSpacing=0;glass=0;" vertex="1" parent="1">
          <mxGeometry x="827" y="185" width="120" height="30" as="geometry" />
        </mxCell>
        <mxCell id="uAHaU_QoXrdmUZP_G0ET-13" style="edgeStyle=orthogonalEdgeStyle;rounded=0;orthogonalLoop=1;jettySize=auto;html=1;exitX=1;exitY=0.5;exitDx=0;exitDy=0;entryX=0;entryY=0.5;entryDx=0;entryDy=0;" edge="1" parent="1" source="uAHaU_QoXrdmUZP_G0ET-11" target="uAHaU_QoXrdmUZP_G0ET-12">
          <mxGeometry relative="1" as="geometry" />
        </mxCell>
        <mxCell id="uAHaU_QoXrdmUZP_G0ET-11" value="Kurier sendet erfasste Daten an Zentrale" style="rounded=1;whiteSpace=wrap;html=1;fillColor=#E6E6E6;gradientColor=none;strokeWidth=1;perimeterSpacing=0;glass=0;" vertex="1" parent="1">
          <mxGeometry x="1000" y="185" width="120" height="30" as="geometry" />
        </mxCell>
        <mxCell id="uAHaU_QoXrdmUZP_G0ET-28" style="edgeStyle=orthogonalEdgeStyle;rounded=0;orthogonalLoop=1;jettySize=auto;html=1;exitX=1;exitY=0.75;exitDx=0;exitDy=0;entryX=0;entryY=0.5;entryDx=0;entryDy=0;" edge="1" parent="1" source="uAHaU_QoXrdmUZP_G0ET-12" target="uAHaU_QoXrdmUZP_G0ET-15">
          <mxGeometry relative="1" as="geometry" />
        </mxCell>
        <mxCell id="uAHaU_QoXrdmUZP_G0ET-29" style="edgeStyle=orthogonalEdgeStyle;rounded=0;orthogonalLoop=1;jettySize=auto;html=1;exitX=1;exitY=0.25;exitDx=0;exitDy=0;entryX=0;entryY=0.5;entryDx=0;entryDy=0;" edge="1" parent="1" source="uAHaU_QoXrdmUZP_G0ET-12" target="uAHaU_QoXrdmUZP_G0ET-16">
          <mxGeometry relative="1" as="geometry" />
        </mxCell>
        <mxCell id="uAHaU_QoXrdmUZP_G0ET-12" value="" style="rounded=0;whiteSpace=wrap;html=1;fillColor=#000000;" vertex="1" parent="1">
          <mxGeometry x="1170" y="175" width="10" height="50" as="geometry" />
        </mxCell>
        <mxCell id="uAHaU_QoXrdmUZP_G0ET-32" style="edgeStyle=orthogonalEdgeStyle;rounded=0;orthogonalLoop=1;jettySize=auto;html=1;exitX=1;exitY=0.5;exitDx=0;exitDy=0;entryX=0;entryY=0.75;entryDx=0;entryDy=0;" edge="1" parent="1" source="uAHaU_QoXrdmUZP_G0ET-15" target="uAHaU_QoXrdmUZP_G0ET-23">
          <mxGeometry relative="1" as="geometry" />
        </mxCell>
        <mxCell id="uAHaU_QoXrdmUZP_G0ET-15" value="Zentrale gleicht Daten von Kurier mit vorhandenen ab" style="rounded=1;whiteSpace=wrap;html=1;fillColor=#E6E6E6;gradientColor=none;strokeWidth=1;perimeterSpacing=0;glass=0;" vertex="1" parent="1">
          <mxGeometry x="1350" y="225" width="120" height="45" as="geometry" />
        </mxCell>
        <mxCell id="uAHaU_QoXrdmUZP_G0ET-18" style="edgeStyle=orthogonalEdgeStyle;rounded=0;orthogonalLoop=1;jettySize=auto;html=1;exitX=1;exitY=0.5;exitDx=0;exitDy=0;entryX=0;entryY=0.5;entryDx=0;entryDy=0;" edge="1" parent="1" source="uAHaU_QoXrdmUZP_G0ET-16" target="uAHaU_QoXrdmUZP_G0ET-17">
          <mxGeometry relative="1" as="geometry" />
        </mxCell>
        <mxCell id="uAHaU_QoXrdmUZP_G0ET-16" value="Sendung Kunden übergeben" style="rounded=1;whiteSpace=wrap;html=1;fillColor=#E6E6E6;gradientColor=none;strokeWidth=1;perimeterSpacing=0;glass=0;" vertex="1" parent="1">
          <mxGeometry x="1230" y="160" width="120" height="30" as="geometry" />
        </mxCell>
        <mxCell id="uAHaU_QoXrdmUZP_G0ET-20" style="edgeStyle=orthogonalEdgeStyle;rounded=0;orthogonalLoop=1;jettySize=auto;html=1;exitX=0.5;exitY=0;exitDx=0;exitDy=0;entryX=0;entryY=0.5;entryDx=0;entryDy=0;" edge="1" parent="1" source="uAHaU_QoXrdmUZP_G0ET-17" target="uAHaU_QoXrdmUZP_G0ET-19">
          <mxGeometry relative="1" as="geometry">
            <Array as="points">
              <mxPoint x="1415" y="135" />
            </Array>
          </mxGeometry>
        </mxCell>
        <mxCell id="uAHaU_QoXrdmUZP_G0ET-25" style="edgeStyle=orthogonalEdgeStyle;rounded=0;orthogonalLoop=1;jettySize=auto;html=1;exitX=1;exitY=0.5;exitDx=0;exitDy=0;entryX=0;entryY=0.5;entryDx=0;entryDy=0;" edge="1" parent="1" source="uAHaU_QoXrdmUZP_G0ET-17" target="uAHaU_QoXrdmUZP_G0ET-24">
          <mxGeometry relative="1" as="geometry" />
        </mxCell>
        <mxCell id="uAHaU_QoXrdmUZP_G0ET-17" value="" style="rhombus;whiteSpace=wrap;html=1;" vertex="1" parent="1">
          <mxGeometry x="1400" y="160" width="30" height="30" as="geometry" />
        </mxCell>
        <mxCell id="uAHaU_QoXrdmUZP_G0ET-26" style="edgeStyle=orthogonalEdgeStyle;rounded=0;orthogonalLoop=1;jettySize=auto;html=1;exitX=1;exitY=0.5;exitDx=0;exitDy=0;entryX=0.5;entryY=0;entryDx=0;entryDy=0;" edge="1" parent="1" source="uAHaU_QoXrdmUZP_G0ET-19" target="uAHaU_QoXrdmUZP_G0ET-24">
          <mxGeometry relative="1" as="geometry" />
        </mxCell>
        <mxCell id="uAHaU_QoXrdmUZP_G0ET-19" value="Sendung von Kunden quittieren lassen" style="rounded=1;whiteSpace=wrap;html=1;fillColor=#E6E6E6;gradientColor=none;strokeWidth=1;perimeterSpacing=0;glass=0;" vertex="1" parent="1">
          <mxGeometry x="1470" y="120" width="120" height="30" as="geometry" />
        </mxCell>
        <mxCell id="uAHaU_QoXrdmUZP_G0ET-21" value="Quittung benötigt" style="text;html=1;strokeColor=none;fillColor=none;align=center;verticalAlign=middle;whiteSpace=wrap;rounded=0;" vertex="1" parent="1">
          <mxGeometry x="1400" y="100" width="60" height="30" as="geometry" />
        </mxCell>
        <mxCell id="uAHaU_QoXrdmUZP_G0ET-22" value="Quittung nicht benötigt" style="text;html=1;strokeColor=none;fillColor=none;align=center;verticalAlign=middle;whiteSpace=wrap;rounded=0;" vertex="1" parent="1">
          <mxGeometry x="1420" y="155" width="140" height="30" as="geometry" />
        </mxCell>
        <mxCell id="uAHaU_QoXrdmUZP_G0ET-36" style="edgeStyle=orthogonalEdgeStyle;rounded=0;orthogonalLoop=1;jettySize=auto;html=1;exitX=1;exitY=0.5;exitDx=0;exitDy=0;entryX=0;entryY=0.5;entryDx=0;entryDy=0;" edge="1" parent="1" source="uAHaU_QoXrdmUZP_G0ET-23" target="uAHaU_QoXrdmUZP_G0ET-33">
          <mxGeometry relative="1" as="geometry" />
        </mxCell>
        <mxCell id="uAHaU_QoXrdmUZP_G0ET-23" value="" style="rounded=0;whiteSpace=wrap;html=1;fillColor=#000000;" vertex="1" parent="1">
          <mxGeometry x="1790" y="177.5" width="10" height="50" as="geometry" />
        </mxCell>
        <mxCell id="uAHaU_QoXrdmUZP_G0ET-30" style="edgeStyle=orthogonalEdgeStyle;rounded=0;orthogonalLoop=1;jettySize=auto;html=1;exitX=1;exitY=0.5;exitDx=0;exitDy=0;entryX=0;entryY=0.25;entryDx=0;entryDy=0;" edge="1" parent="1" source="uAHaU_QoXrdmUZP_G0ET-24" target="uAHaU_QoXrdmUZP_G0ET-23">
          <mxGeometry relative="1" as="geometry" />
        </mxCell>
        <mxCell id="uAHaU_QoXrdmUZP_G0ET-24" value="" style="rhombus;whiteSpace=wrap;html=1;" vertex="1" parent="1">
          <mxGeometry x="1640" y="160" width="30" height="30" as="geometry" />
        </mxCell>
        <mxCell id="uAHaU_QoXrdmUZP_G0ET-37" style="edgeStyle=orthogonalEdgeStyle;rounded=0;orthogonalLoop=1;jettySize=auto;html=1;exitX=1;exitY=0.5;exitDx=0;exitDy=0;entryX=0;entryY=0.5;entryDx=0;entryDy=0;" edge="1" parent="1" source="uAHaU_QoXrdmUZP_G0ET-33" target="uAHaU_QoXrdmUZP_G0ET-34">
          <mxGeometry relative="1" as="geometry" />
        </mxCell>
        <mxCell id="uAHaU_QoXrdmUZP_G0ET-33" value="Meldung Abschluss an Zentrale" style="rounded=1;whiteSpace=wrap;html=1;fillColor=#E6E6E6;gradientColor=none;strokeWidth=1;perimeterSpacing=0;glass=0;" vertex="1" parent="1">
          <mxGeometry x="1890" y="187.5" width="120" height="30" as="geometry" />
        </mxCell>
        <mxCell id="uAHaU_QoXrdmUZP_G0ET-38" style="edgeStyle=orthogonalEdgeStyle;rounded=0;orthogonalLoop=1;jettySize=auto;html=1;exitX=1;exitY=0.5;exitDx=0;exitDy=0;entryX=0;entryY=0.5;entryDx=0;entryDy=0;" edge="1" parent="1" source="uAHaU_QoXrdmUZP_G0ET-34" target="uAHaU_QoXrdmUZP_G0ET-35">
          <mxGeometry relative="1" as="geometry" />
        </mxCell>
        <mxCell id="uAHaU_QoXrdmUZP_G0ET-34" value="Zentrale erstellt Rechnung" style="rounded=1;whiteSpace=wrap;html=1;fillColor=#E6E6E6;gradientColor=none;strokeWidth=1;perimeterSpacing=0;glass=0;" vertex="1" parent="1">
          <mxGeometry x="2068" y="187.5" width="120" height="30" as="geometry" />
        </mxCell>
        <mxCell id="uAHaU_QoXrdmUZP_G0ET-41" style="edgeStyle=orthogonalEdgeStyle;rounded=0;orthogonalLoop=1;jettySize=auto;html=1;exitX=1;exitY=0.5;exitDx=0;exitDy=0;entryX=0;entryY=0.5;entryDx=0;entryDy=0;" edge="1" parent="1" source="uAHaU_QoXrdmUZP_G0ET-35" target="uAHaU_QoXrdmUZP_G0ET-39">
          <mxGeometry relative="1" as="geometry" />
        </mxCell>
        <mxCell id="uAHaU_QoXrdmUZP_G0ET-35" value="Rechnung an Auftraggeber senden" style="rounded=1;whiteSpace=wrap;html=1;fillColor=#E6E6E6;gradientColor=none;strokeWidth=1;perimeterSpacing=0;glass=0;" vertex="1" parent="1">
          <mxGeometry x="2240" y="187.5" width="120" height="30" as="geometry" />
        </mxCell>
        <mxCell id="uAHaU_QoXrdmUZP_G0ET-39" value="" style="ellipse;whiteSpace=wrap;html=1;rounded=1;shadow=0;glass=0;sketch=0;strokeWidth=1;" vertex="1" parent="1">
          <mxGeometry x="2400" y="188" width="30" height="30" as="geometry" />
        </mxCell>
        <mxCell id="uAHaU_QoXrdmUZP_G0ET-40" value="" style="ellipse;whiteSpace=wrap;html=1;fillColor=#000000;" vertex="1" parent="1">
          <mxGeometry x="2405" y="193" width="20" height="20" as="geometry" />
        </mxCell>
      </root>
    </mxGraphModel>
  </diagram>
</mxfile>
